# xmcd CD database file
#
# Track frame offsets:
#	151
#	13315
#	27524
#	43886
#	58058
#	72377
#	87450
#	100946
#	112155
#	128025
#	142415
#	156320
#	174640
#	187886
#	199385
#	212907
#	224250
#	239982
#
# Disc length: 3368 seconds
#
# Revision: 0
# Processed by: cddbd v1.5.1PL0 Copyright (c) Steve Scherf et al.
# Submitted via: CDex 1.51
#
DISCID=2d0d2612
DTITLE=Count Basie - Basie Talks
DYEAR=1900
DGENRE=Jazz
TTITLE0=One O'Clock Jump
TTITLE1=Jive At Five
TTITLE2=Basie Talks
TTITLE3=Blues For The Count and Oscar
TTITLE4=I Ain't Got Nobody
TTITLE5=Goin' To Chicago
TTITLE6=Beaver Junction
TTITLE7=Little Pony
TTITLE8=There's A Small Hotel
TTITLE9=Sent For You Yesterday (And Here You Come Today)
TTITLE10=Tippin' On The Q.T.
TTITLE11=Paradise Squat (Take 2)
TTITLE12=Howzit
TTITLE13=Hob Nail Boogie
TTITLE14=Lean Baby
TTITLE15=The Cool Rage
TTITLE16=Nails
TTITLE17=Every Tub
EXTD=
EXTT0=
EXTT1=
EXTT2=
EXTT3=
EXTT4=
EXTT5=
EXTT6=
EXTT7=
EXTT8=
EXTT9=
EXTT10=
EXTT11=
EXTT12=
EXTT13=
EXTT14=
EXTT15=
EXTT16=
EXTT17=
PLAYORDER=
